# xmcd
#
# Track frame offsets:
#	150
#	17569
#	38422
#	60201
#	75474
#	96482
#	118406
#	138429
#	162027
#	177309
#	200623
#	225323
#	248490
#
# Disc length: 3535 seconds
#
# Revision: 0
# Processed by: cddbd v1.4PL0 Copyright (c) Steve Scherf et al.
# Submitted via: dBpowerAMP V4.0
#
DISCID=980dcd0d
DTITLE=Dam Vinh Hung - Hay Den Voi Anh Dem Nay
DYEAR=1900
DGENRE=
TTITLE0=Ke Di Tim Mong
TTITLE1=Mua Thu La Bay
TTITLE2=Noi Dau Vo Thuong
TTITLE3=Tinh Co Nhu Khong
TTITLE4=Loi Nho Vao Doi
TTITLE5=Tinh Tiec Nuoi
TTITLE6=Vung Troi Binh Yen
TTITLE7=Bao Gio Nguoi Tro Lai
TTITLE8=Hay Den Day Dem Nay
TTITLE9=Tinh Doi Nghe Si
TTITLE10=Bai Thanh Ca Buon
TTITLE11=Hay Co Quen Di
TTITLE12=Feliznavidad (Hop Ca)
EXTD=Dam Vinh Hung - Hay Den Voi Anh Dem Nay
EXTT0=
EXTT1=
EXTT2=
EXTT3=
EXTT4=
EXTT5=
EXTT6=
EXTT7=
EXTT8=
EXTT9=
EXTT10=
EXTT11=
EXTT12=
PLAYORDER=
